Input #0, lavfi, from 'yuvtestsrc=duration=60:size=1920x1080:rate=30':
  Duration: N/A, start: 0.000000, bitrate: N/A
  Stream #0:0: Video: rawvideo (444P / 0x50343434), yuv444p, 1920x1080 [SAR 1:1 DAR 16:9], 30 tbr, 30 tbn, 30 tbc
Stream mapping:
  Stream #0:0 -> #0:0 (rawvideo (native) -> h264 (h264_nvenc))
Press [q] to stop, [?] for help
Output #0, mp4, to './test_results/temp_tests_gpu/test_test_50_28/output.mp4':
  Metadata:
    encoder         : Lavf58.76.100
  Stream #0:0: Video: h264 (High 4:4:4 Predictive) (avc1 / 0x31637661), yuv444p(tv, progressive), 1280x720 [SAR 1:1 DAR 16:9], q=2-31, 30 fps, 15360 tbn
    Metadata:
      encoder         : Lavc58.134.100 h264_nvenc
    Side data:
      cpb: bitrate max/min/avg: 3000000/0/0 buffer size: 4000000 vbv_delay: N/A
frame=    1 fps=0.0 q=0.0 size=       0kB time=00:00:00.00 bitrate=N/A speed=N/A    frame=    2 fps=1.3 q=0.0 size=       0kB time=00:00:00.00 bitrate=N/A speed=   0x    frame=   63 fps= 32 q=19.0 size=       0kB time=00:00:02.00 bitrate=   0.2kbits/s speed=1.01x    frame=  139 fps= 56 q=23.0 size=       0kB time=00:00:04.53 bitrate=   0.1kbits/s speed=1.82x    frame=  228 fps= 76 q=23.0 size=       0kB time=00:00:07.50 bitrate=   0.1kbits/s speed=2.51x    frame=  310 fps= 89 q=23.0 size=       0kB time=00:00:10.23 bitrate=   0.0kbits/s speed=2.93x    frame=  382 fps= 96 q=23.0 size=       0kB time=00:00:12.63 bitrate=   0.0kbits/s speed=3.16x    frame=  453 fps=101 q=23.0 size=       0kB time=00:00:15.00 bitrate=   0.0kbits/s speed=3.34x    frame=  538 fps=108 q=23.0 size=       0kB time=00:00:17.83 bitrate=   0.0kbits/s speed=3.57x    frame=  619 fps=113 q=23.0 size=       0kB time=00:00:20.53 bitrate=   0.0kbits/s speed=3.74x    frame=  699 fps=117 q=23.0 size=       0kB time=00:00:23.20 bitrate=   0.0kbits/s speed=3.87x    frame=  783 fps=121 q=19.0 size=       0kB time=00:00:26.00 bitrate=   0.0kbits/s speed=   4x    frame=  882 fps=126 q=23.0 size=       0kB time=00:00:29.30 bitrate=   0.0kbits/s speed=4.19x    frame=  975 fps=130 q=23.0 size=       0kB time=00:00:32.40 bitrate=   0.0kbits/s speed=4.32x    frame= 1074 fps=134 q=23.0 size=       0kB time=00:00:35.70 bitrate=   0.0kbits/s speed=4.46x    frame= 1165 fps=137 q=23.0 size=       0kB time=00:00:38.73 bitrate=   0.0kbits/s speed=4.55x    frame= 1269 fps=141 q=23.0 size=       0kB time=00:00:42.20 bitrate=   0.0kbits/s speed=4.68x    frame= 1371 fps=144 q=23.0 size=       0kB time=00:00:45.60 bitrate=   0.0kbits/s speed=4.79x    frame= 1477 fps=148 q=23.0 size=       0kB time=00:00:49.13 bitrate=   0.0kbits/s speed=4.91x    frame= 1584 fps=151 q=23.0 size=       0kB time=00:00:52.70 bitrate=   0.0kbits/s speed=5.01x    frame= 1682 fps=153 q=23.0 size=     256kB time=00:00:55.96 bitrate=  37.5kbits/s speed=5.08x    frame= 1779 fps=154 q=23.0 size=     256kB time=00:00:59.20 bitrate=  35.4kbits/s speed=5.14x    [mp4 @ 0x599292eafd80] Starting second pass: moving the moov atom to the beginning of the file
frame= 1800 fps=154 q=23.0 Lsize=     293kB time=00:00:59.96 bitrate=  40.1kbits/s speed=5.14x    
video:285kB audio:0kB subtitle:0kB other streams:0kB global headers:0kB muxing overhead: 2.801454%
